<svg width="41" height="41" viewBox="0 0 41 41" fill="none" xmlns="http://www.w3.org/2000/svg">
<path d="M20.3356 38.2157C30.2805 38.2157 38.3424 30.1538 38.3424 20.2089C38.3424 10.264 30.2805 2.20203 20.3356 2.20203C10.3907 2.20203 2.32874 10.264 2.32874 20.2089C2.32874 30.1538 10.3907 38.2157 20.3356 38.2157Z" stroke="white" stroke-width="4"/>
<path fill-rule="evenodd" clip-rule="evenodd" d="M20.3356 12.8277C22.7396 12.8277 23.0243 12.8369 23.9737 12.8802C24.8515 12.9202 25.3283 13.0669 25.6455 13.1902C26.0658 13.3535 26.3657 13.5486 26.6808 13.8637C26.9958 14.1787 27.1909 14.4787 27.3542 14.8989C27.4775 15.2162 27.6242 15.6929 27.6643 16.5707C27.7076 17.5201 27.7167 17.8049 27.7167 20.2089C27.7167 22.6129 27.7076 22.8977 27.6643 23.847C27.6242 24.7249 27.4775 25.2016 27.3542 25.5189C27.1909 25.9391 26.9958 26.239 26.6808 26.5541C26.3657 26.8691 26.0658 27.0643 25.6455 27.2276C25.3283 27.3509 24.8515 27.4975 23.9737 27.5376C23.0245 27.5809 22.7397 27.5901 20.3356 27.5901C17.9314 27.5901 17.6467 27.5809 16.6974 27.5376C15.8196 27.4975 15.3429 27.3509 15.0256 27.2276C14.6054 27.0643 14.3054 26.8691 13.9904 26.5541C13.6753 26.239 13.4802 25.9391 13.3169 25.5189C13.1936 25.2016 13.0469 24.7249 13.0069 23.8471C12.9635 22.8977 12.9544 22.6129 12.9544 20.2089C12.9544 17.8049 12.9635 17.5201 13.0069 16.5707C13.0469 15.6929 13.1936 15.2162 13.3169 14.8989C13.4802 14.4787 13.6753 14.1787 13.9904 13.8637C14.3054 13.5486 14.6054 13.3535 15.0256 13.1902C15.3429 13.0669 15.8196 12.9202 16.6974 12.8802C17.6468 12.8369 17.9315 12.8277 20.3356 12.8277ZM20.3356 11.2054C17.8904 11.2054 17.5838 11.2158 16.6235 11.2596C15.6651 11.3034 15.0107 11.4555 14.438 11.6781C13.8459 11.9082 13.3438 12.2161 12.8433 12.7166C12.3427 13.2171 12.0349 13.7192 11.8048 14.3113C11.5822 14.884 11.43 15.5385 11.3863 16.4968C11.3425 17.4571 11.3322 17.7637 11.3322 20.2089C11.3322 22.6541 11.3425 22.9607 11.3863 23.921C11.43 24.8793 11.5822 25.5338 11.8048 26.1065C12.0349 26.6985 12.3427 27.2006 12.8433 27.7012C13.3438 28.2017 13.8459 28.5096 14.438 28.7396C15.0107 28.9622 15.6651 29.1144 16.6235 29.1582C17.5838 29.202 17.8904 29.2123 20.3356 29.2123C22.7808 29.2123 23.0874 29.202 24.0476 29.1582C25.006 29.1144 25.6604 28.9622 26.2332 28.7396C26.8252 28.5096 27.3273 28.2017 27.8278 27.7012C28.3284 27.2006 28.6362 26.6985 28.8663 26.1065C29.0889 25.5338 29.2411 24.8793 29.2848 23.921C29.3286 22.9607 29.339 22.6541 29.339 20.2089C29.339 17.7637 29.3286 17.4571 29.2848 16.4968C29.2411 15.5385 29.0889 14.884 28.8663 14.3113C28.6362 13.7192 28.3284 13.2171 27.8278 12.7166C27.3273 12.2161 26.8252 11.9082 26.2332 11.6781C25.6604 11.4555 25.006 11.3034 24.0476 11.2596C23.0874 11.2158 22.7808 11.2054 20.3356 11.2054ZM20.3534 15.6C17.7982 15.6 15.7267 17.6715 15.7267 20.2267C15.7267 22.782 17.7982 24.8535 20.3534 24.8535C22.9087 24.8535 24.9802 22.782 24.9802 20.2267C24.9802 17.6715 22.9087 15.6 20.3534 15.6ZM20.3534 23.2301C18.6948 23.2301 17.3501 21.8854 17.3501 20.2267C17.3501 18.5681 18.6948 17.2234 20.3534 17.2234C22.0121 17.2234 23.3568 18.5681 23.3568 20.2267C23.3568 21.8854 22.0121 23.2301 20.3534 23.2301ZM26.195 15.3856C26.195 15.9776 25.7151 16.4574 25.1231 16.4574C24.5312 16.4574 24.0513 15.9776 24.0513 15.3856C24.0513 14.7936 24.5312 14.3138 25.1231 14.3138C25.7151 14.3138 26.195 14.7936 26.195 15.3856Z" fill="#FEFEFE"/>
</svg>
