<svg width="41" height="41" viewBox="0 0 41 41" fill="none" xmlns="http://www.w3.org/2000/svg">
<path d="M20.2262 38.435C30.1711 38.435 38.233 30.373 38.233 20.4281C38.233 10.4832 30.1711 2.42126 20.2262 2.42126C10.2812 2.42126 2.2193 10.4832 2.2193 20.4281C2.2193 30.373 10.2812 38.435 20.2262 38.435Z" stroke="white" stroke-width="4"/>
<path fill-rule="evenodd" clip-rule="evenodd" d="M12.9509 17.9168C13.1787 18.0656 13.8653 18.5075 15.0108 19.2422C16.1563 19.977 17.0339 20.5427 17.6435 20.9395C17.7105 20.9829 17.8528 21.0775 18.0705 21.2231C18.2882 21.3689 18.4691 21.4869 18.6131 21.5767C18.7571 21.6665 18.9313 21.7674 19.1356 21.8789C19.34 21.9904 19.5326 22.0742 19.7134 22.1298C19.8944 22.1858 20.0619 22.2135 20.2159 22.2135H20.226H20.2361C20.3902 22.2135 20.5577 22.1858 20.7386 22.1298C20.9194 22.0742 21.1122 21.9903 21.3164 21.8789C21.5207 21.7672 21.6948 21.6665 21.8389 21.5767C21.9829 21.4869 22.1637 21.3689 22.3814 21.2231C22.5991 21.0774 22.7416 20.9829 22.8085 20.9395C23.4247 20.5426 24.9924 19.535 27.5112 17.9166C28.0002 17.6005 28.4087 17.2191 28.737 16.7726C29.0654 16.3263 29.2294 15.8581 29.2294 15.3683C29.2294 14.959 29.0702 14.6086 28.752 14.3172C28.4338 14.0257 28.0569 13.8801 27.6217 13.8801H12.8303C12.3145 13.8801 11.9176 14.0413 11.6396 14.3637C11.3616 14.6862 11.2226 15.0893 11.2226 15.5728C11.2226 15.9635 11.4069 16.3868 11.7753 16.8425C12.1437 17.2983 12.5356 17.6564 12.9509 17.9168ZM28.2245 18.912C26.0274 20.2884 24.3592 21.3581 23.2206 22.1208C22.8387 22.3812 22.5289 22.5844 22.291 22.73C22.0532 22.8757 21.7367 23.0245 21.3415 23.1764C20.9463 23.3284 20.5779 23.4043 20.2363 23.4043H20.226H20.2159C19.8743 23.4043 19.5057 23.3284 19.1106 23.1764C18.7154 23.0245 18.3988 22.8757 18.161 22.73C17.9232 22.5844 17.6134 22.3812 17.2316 22.1208C16.3272 21.5069 14.6625 20.4373 12.2375 18.912C11.8557 18.6764 11.5174 18.4066 11.2226 18.1028V25.4876C11.2226 25.897 11.38 26.2473 11.6948 26.5387C12.0097 26.8303 12.3882 26.976 12.8304 26.976H27.6218C28.0638 26.976 28.4423 26.8303 28.7572 26.5387C29.0722 26.2472 29.2294 25.897 29.2294 25.4876V18.1028C28.9413 18.4003 28.6065 18.6702 28.2245 18.912Z" fill="#FEFEFE"/>
</svg>
