<svg width="41" height="41" viewBox="0 0 41 41" fill="none" xmlns="http://www.w3.org/2000/svg">
<path d="M20.1164 38.435C30.0613 38.435 38.1233 30.373 38.1233 20.4281C38.1233 10.4832 30.0613 2.42126 20.1164 2.42126C10.1715 2.42126 2.10956 10.4832 2.10956 20.4281C2.10956 30.373 10.1715 38.435 20.1164 38.435Z" stroke="white" stroke-width="4"/>
<path fill-rule="evenodd" clip-rule="evenodd" d="M24.3181 22.2287C23.1176 23.4292 23.1176 24.6296 21.9171 24.6296C20.7167 24.6296 19.5162 23.4292 18.3158 22.2287C17.1153 21.0283 15.9149 19.8278 15.9149 18.6274C15.9149 17.4269 17.1153 17.4269 18.3158 16.2264C19.5162 15.026 15.9149 11.4246 14.7144 11.4246C13.514 11.4246 11.113 15.026 11.113 15.026C11.113 17.4269 13.58 22.2948 15.9149 24.6296C18.2486 26.9645 23.1176 29.4315 25.5185 29.4315C25.5185 29.4315 29.1199 27.0306 29.1199 25.8301C29.1199 24.6296 25.5185 21.0283 24.3181 22.2287Z" fill="#FEFEFE"/>
</svg>
