<svg width="41" height="41" viewBox="0 0 41 41" fill="none" xmlns="http://www.w3.org/2000/svg">
<path d="M20.3356 38.435C30.2805 38.435 38.3424 30.373 38.3424 20.4281C38.3424 10.4832 30.2805 2.42126 20.3356 2.42126C10.3907 2.42126 2.32874 10.4832 2.32874 20.4281C2.32874 30.373 10.3907 38.435 20.3356 38.435Z" stroke="white" stroke-width="4"/>
<path fill-rule="evenodd" clip-rule="evenodd" d="M27.6928 12.1785L25.1204 27.6126C25.0869 27.8069 24.9797 27.9576 24.7989 28.0648C24.7051 28.1184 24.6012 28.1452 24.4874 28.1452C24.4137 28.1452 24.3333 28.1284 24.2462 28.095L19.6943 26.236L17.2627 29.2003C17.1421 29.3543 16.978 29.4314 16.7703 29.4314C16.6832 29.4314 16.6095 29.418 16.5492 29.3912C16.422 29.3443 16.3198 29.2656 16.2428 29.155C16.1657 29.0445 16.1272 28.9223 16.1272 28.7883V25.2814L24.8089 14.6403L14.0673 23.935L10.0982 22.3071C9.85038 22.2134 9.7164 22.0291 9.69631 21.7545C9.68291 21.4865 9.79009 21.2889 10.0179 21.1616L26.7382 11.5153C26.8387 11.455 26.9458 11.4249 27.0597 11.4249C27.1937 11.4249 27.3143 11.4617 27.4215 11.5354C27.6425 11.6962 27.733 11.9105 27.6928 12.1785Z" fill="#FEFEFE"/>
</svg>
