<svg width="41" height="41" viewBox="0 0 41 41" fill="none" xmlns="http://www.w3.org/2000/svg">
<path d="M20.4452 38.2157C30.3901 38.2157 38.4521 30.1538 38.4521 20.2089C38.4521 10.264 30.3901 2.20203 20.4452 2.20203C10.5003 2.20203 2.43835 10.264 2.43835 20.2089C2.43835 30.1538 10.5003 38.2157 20.4452 38.2157Z" stroke="white" stroke-width="4"/>
<path fill-rule="evenodd" clip-rule="evenodd" d="M21.0395 26.7006C21.0395 26.7006 21.4088 26.6603 21.598 26.4609C21.7711 26.2782 21.7651 25.9334 21.7651 25.9334C21.7651 25.9334 21.7421 24.3232 22.5037 24.0855C23.2543 23.8517 24.2181 25.6426 25.241 26.3312C26.0136 26.8519 26.6001 26.738 26.6001 26.738L29.3333 26.7006C29.3333 26.7006 30.7624 26.6142 30.0849 25.5109C30.0288 25.4206 29.6896 24.6946 28.0532 23.2033C26.3388 21.6423 26.569 21.8947 28.6327 19.1941C29.8897 17.5496 30.3921 16.5456 30.235 16.1163C30.0859 15.7057 29.1611 15.8147 29.1611 15.8147L26.0846 15.8334C26.0846 15.8334 25.8565 15.8029 25.6873 15.9021C25.5222 15.9994 25.4151 16.2263 25.4151 16.2263C25.4151 16.2263 24.9287 17.4985 24.2792 18.5811C22.9091 20.8642 22.3616 20.985 22.1374 20.8436C21.616 20.5125 21.7461 19.5154 21.7461 18.8071C21.7461 16.5937 22.0884 15.6713 21.0806 15.4326C20.7463 15.353 20.5001 15.3009 19.6444 15.2921C18.5465 15.2813 17.6178 15.296 17.0913 15.5485C16.741 15.7165 16.4708 16.0917 16.636 16.1134C16.8391 16.1399 17.2995 16.2352 17.5437 16.5613C17.859 16.9828 17.8479 17.9278 17.8479 17.9278C17.8479 17.9278 18.0291 20.5331 17.4246 20.8564C17.0103 21.0784 16.4418 20.6255 15.2198 18.5536C14.5943 17.4926 14.1219 16.3197 14.1219 16.3197C14.1219 16.3197 14.0308 16.1006 13.8677 15.9827C13.6706 15.8402 13.3953 15.796 13.3953 15.796L10.472 15.8147C10.472 15.8147 10.0326 15.8265 9.87146 16.0141C9.72835 16.1802 9.86045 16.525 9.86045 16.525C9.86045 16.525 12.1493 21.7818 14.7414 24.4313C17.1184 26.8598 19.8165 26.7006 19.8165 26.7006H21.0395Z" fill="#FEFEFE"/>
</svg>
