<?xml version="1.0" standalone="no"?>
<!DOCTYPE svg PUBLIC "-//W3C//DTD SVG 1.0//EN" "http://www.w3.org/TR/2001/REC-SVG-20010904/DTD/svg10.dtd">
<svg xmlns="http://www.w3.org/2000/svg" xmlns:xlink="http://www.w3.org/1999/xlink" id="body_1" width="36" height="36">

<g transform="matrix(0.1875 0 0 0.1875 0 0)">
	<g>
	</g>
    <path d="M66.56 0L125.44 0C 179.2 0 192 12.8 192 66.56L192 66.56L192 125.44C 192 179.2 179.2 192 125.44 192L125.44 192L66.56 192C 12.8 192 0 179.2 0 125.44L0 125.44L0 66.56C 0 12.8 12.8 0 66.56 0z" stroke="none" fill="#2787F5" fill-rule="nonzero" />
	<g>
	</g>
    <path d="M157.234 66.14622C 158.12355 63.179768 157.234 60.999996 153.00023 60.999996L153.00023 60.999996L139.00023 60.999996C 135.4405 60.999996 133.79941 62.882996 132.90935 64.9594C 132.90935 64.9594 125.78987 82.312935 115.704185 93.5852C 112.441216 96.84817 110.95786 97.88636 109.177986 97.88636C 108.288185 97.88636 106.999985 96.84816 106.999985 93.88196L106.999985 93.88196L106.999985 66.14623C 107 62.58648 105.96694 61 103.00024 61L103.00024 61L81.00024 61C 78.77572 61 77.43787 62.65216 77.43787 64.21797C 77.43787 67.59253 82.48045 68.37075 83.00024 77.86339L83.00024 77.86339L83.00024 98.4799C 83.00024 103 82.18394 103.819496 80.40407 103.819496C 75.658 103.819496 64.11317 86.388435 57.266006 66.44273C 55.92414 62.566 54.57825 61 51.00024 61L51.00024 61L37.00024 61C 33.00024 61 32.2002 62.883 32.2002 64.9594C 32.2002 68.66752 36.94651 87.05926 54.29981 111.38365C 65.86859 127.99527 82.16824 137 97.00024 137C 105.89934 137 107.00024 135 107.00024 131.555L107.00024 131.555L107.00024 119C 107.00024 115 107.843285 114.20171 110.661354 114.20171C 112.73775 114.20171 116.297485 115.239914 124.60353 123.24921C 134.09593 132.7416 135.66087 137 141.00023 137L141.00023 137L155.00023 137C 159.00023 137 161.00023 135 159.84647 131.05312C 158.5839 127.119415 154.05179 121.41215 148.0381 114.646614C 144.77489 110.79037 139.88043 106.63757 138.39708 104.56069C 136.3207 101.89126 136.91399 100.70443 138.39708 98.33152C 138.39708 98.33152 155.4541 74.30365 157.23398 66.146225L157.23398 66.146225L157.234 66.14622z" stroke="none" fill="#FFFFFF" fill-rule="nonzero" />
</g>
</svg>